<mxfile host="app.diagrams.net" modified="2021-03-08T11:35:56.253Z" agent="5.0 (Windows)" etag="lhRvdHbgQazG6bqh44iC" version="14.4.4" type="github">
  <diagram name="Page-1" id="7e0a89b8-554c-2b80-1dc8-d5c74ca68de4">
    <mxGraphModel dx="1422" dy="763" grid="1" gridSize="10" guides="1" tooltips="1" connect="1" arrows="1" fold="1" page="1" pageScale="1" pageWidth="1100" pageHeight="850" background="#ffffff" math="0" shadow="0">
      <root>
        <mxCell id="0" />
        <mxCell id="1" parent="0" />
        <mxCell id="u2FvaGwyN7y8ZYhGtA5W-5" style="edgeStyle=orthogonalEdgeStyle;rounded=0;orthogonalLoop=1;jettySize=auto;html=1;" edge="1" parent="1" source="u2FvaGwyN7y8ZYhGtA5W-3">
          <mxGeometry relative="1" as="geometry">
            <mxPoint x="350" y="440" as="targetPoint" />
          </mxGeometry>
        </mxCell>
        <mxCell id="u2FvaGwyN7y8ZYhGtA5W-9" style="edgeStyle=orthogonalEdgeStyle;rounded=0;orthogonalLoop=1;jettySize=auto;html=1;exitX=0.7;exitY=0;exitDx=0;exitDy=0;exitPerimeter=0;entryX=0;entryY=0;entryDx=0;entryDy=10;entryPerimeter=0;endArrow=none;endFill=0;" edge="1" parent="1" source="u2FvaGwyN7y8ZYhGtA5W-3" target="u2FvaGwyN7y8ZYhGtA5W-8">
          <mxGeometry relative="1" as="geometry" />
        </mxCell>
        <mxCell id="u2FvaGwyN7y8ZYhGtA5W-10" style="edgeStyle=orthogonalEdgeStyle;rounded=0;orthogonalLoop=1;jettySize=auto;html=1;exitX=0.7;exitY=1;exitDx=0;exitDy=0;exitPerimeter=0;" edge="1" parent="1" source="u2FvaGwyN7y8ZYhGtA5W-3">
          <mxGeometry relative="1" as="geometry">
            <mxPoint x="496" y="610" as="targetPoint" />
          </mxGeometry>
        </mxCell>
        <mxCell id="u2FvaGwyN7y8ZYhGtA5W-3" value="" style="verticalLabelPosition=bottom;shadow=0;dashed=0;align=center;html=1;verticalAlign=top;shape=mxgraph.electrical.transistors.npn_transistor_1;" vertex="1" parent="1">
          <mxGeometry x="430" y="390" width="95" height="100" as="geometry" />
        </mxCell>
        <mxCell id="u2FvaGwyN7y8ZYhGtA5W-6" value="" style="pointerEvents=1;verticalLabelPosition=bottom;shadow=0;dashed=0;align=center;html=1;verticalAlign=top;shape=mxgraph.electrical.miscellaneous.light_bulb;" vertex="1" parent="1">
          <mxGeometry x="270" y="415" width="60" height="50" as="geometry" />
        </mxCell>
        <mxCell id="u2FvaGwyN7y8ZYhGtA5W-12" style="edgeStyle=orthogonalEdgeStyle;rounded=0;orthogonalLoop=1;jettySize=auto;html=1;exitX=0;exitY=0;exitDx=0;exitDy=30;exitPerimeter=0;endArrow=none;endFill=0;" edge="1" parent="1" source="u2FvaGwyN7y8ZYhGtA5W-8">
          <mxGeometry relative="1" as="geometry">
            <mxPoint x="640" y="610" as="targetPoint" />
          </mxGeometry>
        </mxCell>
        <mxCell id="u2FvaGwyN7y8ZYhGtA5W-8" value="&lt;div&gt;ARDUINO&lt;/div&gt;" style="shadow=0;dashed=0;align=center;html=1;strokeWidth=1;shape=mxgraph.electrical.logic_gates.dual_inline_ic;labelNames=a,b,c,d,e,f,g,h,i,j,k,l,m,n,o,p,q,r,s,t;" vertex="1" parent="1">
          <mxGeometry x="670" y="240" width="140" height="200" as="geometry" />
        </mxCell>
        <mxCell id="u2FvaGwyN7y8ZYhGtA5W-11" value="GROUND" style="text;html=1;strokeColor=none;fillColor=none;align=center;verticalAlign=middle;whiteSpace=wrap;rounded=0;" vertex="1" parent="1">
          <mxGeometry x="460" y="610" width="70" height="20" as="geometry" />
        </mxCell>
        <mxCell id="u2FvaGwyN7y8ZYhGtA5W-14" style="edgeStyle=orthogonalEdgeStyle;rounded=0;orthogonalLoop=1;jettySize=auto;html=1;exitX=1;exitY=0.5;exitDx=0;exitDy=0;exitPerimeter=0;entryX=0.5;entryY=1;entryDx=0;entryDy=0;endArrow=none;endFill=0;" edge="1" parent="1" source="u2FvaGwyN7y8ZYhGtA5W-13" target="u2FvaGwyN7y8ZYhGtA5W-11">
          <mxGeometry relative="1" as="geometry" />
        </mxCell>
        <mxCell id="u2FvaGwyN7y8ZYhGtA5W-13" value="" style="verticalLabelPosition=bottom;shadow=0;dashed=0;align=center;fillColor=#000000;html=1;verticalAlign=top;strokeWidth=1;shape=mxgraph.electrical.miscellaneous.monocell_battery;" vertex="1" parent="1">
          <mxGeometry x="640" y="580" width="110" height="60" as="geometry" />
        </mxCell>
      </root>
    </mxGraphModel>
  </diagram>
</mxfile>
